<?xml version="1.0" ?><svg xmlns="http://www.w3.org/2000/svg" xmlns:xlink="http://www.w3.org/1999/xlink" width="256" zoomAndPan="magnify" viewBox="0 0 192 191.999996" height="256" preserveAspectRatio="xMidYMid meet" version="1.2" baseProfile="tiny"><defs/><g id="3acbf41139"><rect x="0" width="192" y="0" height="191.999996" style="fill:#ffffff;fill-opacity:1;stroke:none;"/><rect x="0" width="192" y="0" height="191.999996" style="fill:#ffffff;fill-opacity:1;stroke:none;"/><g style="fill:#000000;fill-opacity:1;"><g transform="translate(33.281262, 91.519225)"><path style="stroke:none" d="M -16.671875 -10.578125 C -16.671875 -10.910156 -16.671875 -11.210938 -16.671875 -11.484375 C -16.671875 -11.765625 -16.671875 -12.078125 -16.671875 -12.421875 L -7.671875 -15.296875 L -7.671875 -15.375 L -10.546875 -16.125 L -16.9375 -18.265625 L -16.9375 -22.578125 L -16.28125 -22.578125 L 0.171875 -16.703125 L 0.171875 -14.203125 L -7.984375 -11.5 L -7.984375 -11.421875 L 0.171875 -8.71875 L 0.171875 -6.3125 L -16.28125 -0.359375 L -16.9375 -0.359375 L -16.9375 -4.75 L -10.546875 -6.921875 L -7.671875 -7.671875 L -7.671875 -7.75 Z M -16.671875 -10.578125 "/></g></g><g style="fill:#000000;fill-opacity:1;"><g transform="translate(33.281262, 70.418781)"><path style="stroke:none" d="M -16.9375 -12.734375 C -16.3125 -12.734375 -15.675781 -12.734375 -15.03125 -12.734375 C -14.382812 -12.734375 -13.726562 -12.734375 -13.0625 -12.734375 C -13.0625 -11.890625 -13.0625 -11.148438 -13.0625 -10.515625 C -13.0625 -9.890625 -13.0625 -9.265625 -13.0625 -8.640625 C -13.0625 -8.023438 -13.0625 -7.300781 -13.0625 -6.46875 L -10.671875 -6.46875 L -10.671875 -12.21875 C -10.023438 -12.21875 -9.382812 -12.21875 -8.75 -12.21875 C -8.113281 -12.21875 -7.472656 -12.21875 -6.828125 -12.21875 L -6.828125 -6.46875 C -6.328125 -6.46875 -5.832031 -6.46875 -5.34375 -6.46875 C -4.863281 -6.46875 -4.363281 -6.46875 -3.84375 -6.46875 C -3.84375 -7.300781 -3.84375 -8.046875 -3.84375 -8.703125 C -3.84375 -9.359375 -3.84375 -10.019531 -3.84375 -10.6875 C -3.84375 -11.351562 -3.84375 -12.109375 -3.84375 -12.953125 C -3.21875 -12.953125 -2.582031 -12.953125 -1.9375 -12.953125 C -1.289062 -12.953125 -0.644531 -12.953125 0 -12.953125 C 0 -11.628906 0 -10.394531 0 -9.25 C 0 -8.101562 0 -6.957031 0 -5.8125 C 0 -4.675781 0 -3.457031 0 -2.15625 C -2.84375 -2.15625 -5.675781 -2.15625 -8.5 -2.15625 C -11.320312 -2.15625 -14.132812 -2.15625 -16.9375 -2.15625 C -16.9375 -3.457031 -16.9375 -4.660156 -16.9375 -5.765625 C -16.9375 -6.878906 -16.9375 -7.988281 -16.9375 -9.09375 C -16.9375 -10.195312 -16.9375 -11.410156 -16.9375 -12.734375 Z M -16.9375 -12.734375 "/></g></g><g style="fill:#000000;fill-opacity:1;"><g transform="translate(10.572882, 135.284994)"><path style="stroke:none" d="M 17.625 -40.65625 C 19.78125 -40.65625 21.890625 -40.34375 23.953125 -39.71875 C 26.023438 -39.09375 27.5625 -38.472656 28.5625 -37.859375 L 30.015625 -36.890625 L 26.328125 -29.625 C 26.035156 -29.820312 25.628906 -30.070312 25.109375 -30.375 C 24.597656 -30.675781 23.632812 -31.085938 22.21875 -31.609375 C 20.800781 -32.128906 19.476562 -32.390625 18.25 -32.390625 C 16.726562 -32.390625 15.554688 -32.066406 14.734375 -31.421875 C 13.910156 -30.773438 13.5 -29.898438 13.5 -28.796875 C 13.5 -28.253906 13.691406 -27.75 14.078125 -27.28125 C 14.472656 -26.8125 15.132812 -26.3125 16.0625 -25.78125 C 17 -25.25 17.820312 -24.820312 18.53125 -24.5 C 19.25 -24.175781 20.347656 -23.691406 21.828125 -23.046875 C 24.410156 -21.941406 26.613281 -20.445312 28.4375 -18.5625 C 30.257812 -16.675781 31.171875 -14.539062 31.171875 -12.15625 C 31.171875 -9.863281 30.757812 -7.859375 29.9375 -6.140625 C 29.113281 -4.429688 27.984375 -3.09375 26.546875 -2.125 C 25.109375 -1.15625 23.519531 -0.441406 21.78125 0.015625 C 20.039062 0.484375 18.15625 0.71875 16.125 0.71875 C 14.375 0.71875 12.660156 0.539062 10.984375 0.1875 C 9.304688 -0.164062 7.898438 -0.609375 6.765625 -1.140625 C 5.640625 -1.671875 4.625 -2.191406 3.71875 -2.703125 C 2.820312 -3.222656 2.164062 -3.660156 1.75 -4.015625 L 1.109375 -4.546875 L 5.65625 -12.203125 C 6.050781 -11.878906 6.585938 -11.46875 7.265625 -10.96875 C 7.941406 -10.46875 9.140625 -9.796875 10.859375 -8.953125 C 12.585938 -8.117188 14.113281 -7.703125 15.4375 -7.703125 C 19.28125 -7.703125 21.203125 -9.007812 21.203125 -11.625 C 21.203125 -12.164062 21.0625 -12.671875 20.78125 -13.140625 C 20.507812 -13.609375 20.023438 -14.078125 19.328125 -14.546875 C 18.640625 -15.015625 18.03125 -15.382812 17.5 -15.65625 C 16.96875 -15.9375 16.09375 -16.359375 14.875 -16.921875 C 13.664062 -17.484375 12.773438 -17.910156 12.203125 -18.203125 C 9.773438 -19.390625 7.898438 -20.878906 6.578125 -22.671875 C 5.253906 -24.460938 4.59375 -26.394531 4.59375 -28.46875 C 4.59375 -32.050781 5.914062 -34.976562 8.5625 -37.25 C 11.207031 -39.519531 14.226562 -40.65625 17.625 -40.65625 Z M 17.625 -40.65625 "/></g></g><g style="fill:#000000;fill-opacity:1;"><g transform="translate(38.943216, 135.284994)"><path style="stroke:none" d="M 1.109375 -19.984375 C 1.109375 -25.765625 3.078125 -30.65625 7.015625 -34.65625 C 10.953125 -38.65625 15.695312 -40.65625 21.25 -40.65625 C 26.832031 -40.65625 31.578125 -38.660156 35.484375 -34.671875 C 39.390625 -30.691406 41.34375 -25.796875 41.34375 -19.984375 C 41.34375 -14.148438 39.421875 -9.238281 35.578125 -5.25 C 31.734375 -1.269531 26.957031 0.71875 21.25 0.71875 C 15.40625 0.71875 10.585938 -1.253906 6.796875 -5.203125 C 3.003906 -9.160156 1.109375 -14.085938 1.109375 -19.984375 Z M 10.9375 -19.984375 C 10.9375 -17.890625 11.257812 -15.976562 11.90625 -14.25 C 12.550781 -12.53125 13.679688 -11.070312 15.296875 -9.875 C 16.910156 -8.675781 18.894531 -8.078125 21.25 -8.078125 C 24.632812 -8.078125 27.191406 -9.238281 28.921875 -11.5625 C 30.648438 -13.882812 31.515625 -16.691406 31.515625 -19.984375 C 31.515625 -23.242188 30.632812 -26.046875 28.875 -28.390625 C 27.113281 -30.734375 24.570312 -31.90625 21.25 -31.90625 C 17.957031 -31.90625 15.414062 -30.734375 13.625 -28.390625 C 11.832031 -26.046875 10.9375 -23.242188 10.9375 -19.984375 Z M 10.9375 -19.984375 "/></g></g><g style="fill:#000000;fill-opacity:1;"><g transform="translate(77.238349, 135.284994)"><path style="stroke:none" d="M 24.15625 -8.234375 C 25.539062 -8.234375 26.882812 -8.441406 28.1875 -8.859375 C 29.5 -9.273438 30.460938 -9.675781 31.078125 -10.0625 L 32 -10.703125 L 35.875 -2.953125 C 35.738281 -2.859375 35.554688 -2.726562 35.328125 -2.5625 C 35.109375 -2.40625 34.585938 -2.109375 33.765625 -1.671875 C 32.941406 -1.234375 32.0625 -0.851562 31.125 -0.53125 C 30.1875 -0.207031 28.957031 0.078125 27.4375 0.328125 C 25.925781 0.585938 24.363281 0.71875 22.75 0.71875 C 19.039062 0.71875 15.523438 -0.191406 12.203125 -2.015625 C 8.878906 -3.835938 6.195312 -6.34375 4.15625 -9.53125 C 2.125 -12.726562 1.109375 -16.179688 1.109375 -19.890625 C 1.109375 -22.703125 1.707031 -25.394531 2.90625 -27.96875 C 4.101562 -30.550781 5.691406 -32.765625 7.671875 -34.609375 C 9.660156 -36.453125 11.976562 -37.921875 14.625 -39.015625 C 17.269531 -40.109375 19.976562 -40.65625 22.75 -40.65625 C 25.332031 -40.65625 27.710938 -40.347656 29.890625 -39.734375 C 32.066406 -39.128906 33.609375 -38.519531 34.515625 -37.90625 L 35.875 -36.984375 L 32 -29.234375 C 31.769531 -29.429688 31.425781 -29.664062 30.96875 -29.9375 C 30.519531 -30.207031 29.617188 -30.566406 28.265625 -31.015625 C 26.910156 -31.472656 25.539062 -31.703125 24.15625 -31.703125 C 21.957031 -31.703125 19.988281 -31.347656 18.25 -30.640625 C 16.507812 -29.929688 15.128906 -28.992188 14.109375 -27.828125 C 13.085938 -26.671875 12.3125 -25.421875 11.78125 -24.078125 C 11.25 -22.742188 10.984375 -21.378906 10.984375 -19.984375 C 10.984375 -16.953125 12.117188 -14.234375 14.390625 -11.828125 C 16.671875 -9.429688 19.925781 -8.234375 24.15625 -8.234375 Z M 24.15625 -8.234375 "/></g></g><g style="fill:#000000;fill-opacity:1;"><g transform="translate(109.53019, 135.284994)"><path style="stroke:none" d="M 12 -39.9375 L 12 0 L 2.90625 0 L 2.90625 -39.9375 Z M 12 -39.9375 "/></g></g><g style="fill:#000000;fill-opacity:1;"><g transform="translate(120.277922, 135.284994)"><path style="stroke:none" d="M 23.1875 -39.9375 L 39.3125 0 L 29.53125 0 L 26.578125 -7.984375 L 11.375 -7.984375 L 8.421875 0 L -1.359375 0 L 14.765625 -39.9375 Z M 23.484375 -15.96875 L 19.03125 -27.59375 L 18.921875 -27.59375 L 14.46875 -15.96875 Z M 23.484375 -15.96875 "/></g></g><g style="fill:#000000;fill-opacity:1;"><g transform="translate(154.070587, 135.284994)"><path style="stroke:none" d="M 12 -39.9375 L 12 -7.984375 L 25.75 -7.984375 L 25.75 0 L 2.90625 0 L 2.90625 -39.9375 Z M 12 -39.9375 "/></g></g><g style="fill:#000000;fill-opacity:1;"><g transform="translate(35.810399, 91.391253)"><path style="stroke:none" d="M 34 0 L 23.140625 0 L 10.390625 -14.671875 L 10.390625 0 L 2.515625 0 L 2.515625 -34.578125 L 10.390625 -34.578125 L 10.390625 -20.453125 L 22.265625 -34.578125 L 31.8125 -34.578125 L 17.90625 -18.1875 Z M 34 0 "/></g></g><g style="fill:#000000;fill-opacity:1;"><g transform="translate(65.192295, 91.391253)"><path style="stroke:none" d="M 10.390625 -21.46875 L 10.390625 0 L 2.515625 0 L 2.515625 -34.578125 L 10.390625 -34.578125 L 24.140625 -13.125 L 24.234375 -13.125 L 24.234375 -34.578125 L 32.109375 -34.578125 L 32.109375 0 L 24.234375 0 L 10.484375 -21.46875 Z M 10.390625 -21.46875 "/></g></g><g style="fill:#000000;fill-opacity:1;"><g transform="translate(96.208891, 91.391253)"><path style="stroke:none" d="M 0.96875 -17.3125 C 0.96875 -22.3125 2.671875 -26.546875 6.078125 -30.015625 C 9.484375 -33.484375 13.59375 -35.21875 18.40625 -35.21875 C 23.238281 -35.21875 27.34375 -33.488281 30.71875 -30.03125 C 34.101562 -26.582031 35.796875 -22.34375 35.796875 -17.3125 C 35.796875 -12.25 34.132812 -7.992188 30.8125 -4.546875 C 27.488281 -1.097656 23.351562 0.625 18.40625 0.625 C 13.34375 0.625 9.171875 -1.082031 5.890625 -4.5 C 2.609375 -7.925781 0.96875 -12.195312 0.96875 -17.3125 Z M 9.46875 -17.3125 C 9.46875 -15.5 9.75 -13.84375 10.3125 -12.34375 C 10.875 -10.851562 11.851562 -9.585938 13.25 -8.546875 C 14.644531 -7.515625 16.363281 -7 18.40625 -7 C 21.34375 -7 23.554688 -8.003906 25.046875 -10.015625 C 26.546875 -12.023438 27.296875 -14.457031 27.296875 -17.3125 C 27.296875 -20.132812 26.53125 -22.554688 25 -24.578125 C 23.476562 -26.609375 21.28125 -27.625 18.40625 -27.625 C 15.550781 -27.625 13.347656 -26.609375 11.796875 -24.578125 C 10.242188 -22.554688 9.46875 -20.132812 9.46875 -17.3125 Z M 9.46875 -17.3125 "/></g></g><g style="fill:#000000;fill-opacity:1;"><g transform="translate(128.021735, 91.391253)"><path style="stroke:none" d="M 29.046875 0 L 23.515625 -19.40625 L 17.984375 0 L 9.21875 0 L -0.625 -34.578125 L 8.140625 -34.578125 L 14.046875 -10.859375 L 14.25 -10.859375 L 20.546875 -34.578125 L 26.5 -34.578125 L 32.78125 -10.859375 L 33 -10.859375 L 38.90625 -34.578125 L 47.625 -34.578125 L 37.765625 0 Z M 29.046875 0 "/></g></g></g></svg>